<mxfile host="65bd71144e">
    <diagram name="Page-1" id="HTyiOSOWL1KG4ZYy-PoS">
        <mxGraphModel dx="161" dy="112" grid="1" gridSize="10" guides="1" tooltips="1" connect="1" arrows="1" fold="1" page="1" pageScale="1" pageWidth="827" pageHeight="1169" math="0" shadow="0">
            <root>
                <mxCell id="0"/>
                <mxCell id="1" parent="0"/>
                <mxCell id="iN6r6kVsFaTpzsSQuCP6-1" value="Авторизация пользователей" style="swimlane;html=1;childLayout=stackLayout;resizeParent=1;resizeParentMax=0;horizontal=1;startSize=20;horizontalStack=0;whiteSpace=wrap;" parent="1" vertex="1">
                    <mxGeometry y="380" width="910" height="520" as="geometry"/>
                </mxCell>
                <mxCell id="iN6r6kVsFaTpzsSQuCP6-2" value="Гость" style="swimlane;html=1;startSize=20;horizontal=0;" parent="iN6r6kVsFaTpzsSQuCP6-1" vertex="1">
                    <mxGeometry y="20" width="910" height="250" as="geometry"/>
                </mxCell>
                <mxCell id="iN6r6kVsFaTpzsSQuCP6-6" value="" style="points=[[0.145,0.145,0],[0.5,0,0],[0.855,0.145,0],[1,0.5,0],[0.855,0.855,0],[0.5,1,0],[0.145,0.855,0],[0,0.5,0]];shape=mxgraph.bpmn.event;html=1;verticalLabelPosition=bottom;labelBackgroundColor=#ffffff;verticalAlign=top;align=center;perimeter=ellipsePerimeter;outlineConnect=0;aspect=fixed;outline=standard;symbol=general;" parent="iN6r6kVsFaTpzsSQuCP6-2" vertex="1">
                    <mxGeometry x="30" y="112.5" width="35" height="35" as="geometry"/>
                </mxCell>
                <mxCell id="iN6r6kVsFaTpzsSQuCP6-7" value="Сформировать запрос на авторизацию" style="points=[[0.25,0,0],[0.5,0,0],[0.75,0,0],[1,0.25,0],[1,0.5,0],[1,0.75,0],[0.75,1,0],[0.5,1,0],[0.25,1,0],[0,0.75,0],[0,0.5,0],[0,0.25,0]];shape=mxgraph.bpmn.task;whiteSpace=wrap;rectStyle=rounded;size=10;html=1;container=1;expand=0;collapsible=0;taskMarker=abstract;fontSize=9;" parent="iN6r6kVsFaTpzsSQuCP6-2" vertex="1">
                    <mxGeometry x="80" y="105" width="110" height="50" as="geometry"/>
                </mxCell>
                <mxCell id="iN6r6kVsFaTpzsSQuCP6-8" value="" style="points=[[0.145,0.145,0],[0.5,0,0],[0.855,0.145,0],[1,0.5,0],[0.855,0.855,0],[0.5,1,0],[0.145,0.855,0],[0,0.5,0]];shape=mxgraph.bpmn.event;html=1;verticalLabelPosition=bottom;labelBackgroundColor=#ffffff;verticalAlign=top;align=center;perimeter=ellipsePerimeter;outlineConnect=0;aspect=fixed;outline=standard;symbol=message;" parent="iN6r6kVsFaTpzsSQuCP6-2" vertex="1">
                    <mxGeometry x="240" y="112.5" width="35" height="35" as="geometry"/>
                </mxCell>
                <mxCell id="iN6r6kVsFaTpzsSQuCP6-9" style="edgeStyle=orthogonalEdgeStyle;rounded=0;orthogonalLoop=1;jettySize=auto;html=1;exitX=1;exitY=0.5;exitDx=0;exitDy=0;exitPerimeter=0;entryX=0;entryY=0.5;entryDx=0;entryDy=0;entryPerimeter=0;" parent="iN6r6kVsFaTpzsSQuCP6-2" source="iN6r6kVsFaTpzsSQuCP6-6" target="iN6r6kVsFaTpzsSQuCP6-7" edge="1">
                    <mxGeometry relative="1" as="geometry"/>
                </mxCell>
                <mxCell id="iN6r6kVsFaTpzsSQuCP6-10" style="edgeStyle=orthogonalEdgeStyle;rounded=0;orthogonalLoop=1;jettySize=auto;html=1;exitX=1;exitY=0.5;exitDx=0;exitDy=0;exitPerimeter=0;entryX=0;entryY=0.5;entryDx=0;entryDy=0;entryPerimeter=0;" parent="iN6r6kVsFaTpzsSQuCP6-2" source="iN6r6kVsFaTpzsSQuCP6-7" target="iN6r6kVsFaTpzsSQuCP6-8" edge="1">
                    <mxGeometry relative="1" as="geometry"/>
                </mxCell>
                <mxCell id="iN6r6kVsFaTpzsSQuCP6-11" value="Пароль" style="shape=mxgraph.bpmn.data;labelPosition=center;verticalLabelPosition=middle;align=center;verticalAlign=middle;size=15;html=1;fontSize=9;" parent="iN6r6kVsFaTpzsSQuCP6-2" vertex="1">
                    <mxGeometry x="190" y="160" width="40" height="50" as="geometry"/>
                </mxCell>
                <mxCell id="iN6r6kVsFaTpzsSQuCP6-12" value="Логин" style="shape=mxgraph.bpmn.data;labelPosition=center;verticalLabelPosition=middle;align=center;verticalAlign=middle;size=15;html=1;fontSize=9;" parent="iN6r6kVsFaTpzsSQuCP6-2" vertex="1">
                    <mxGeometry x="200" y="50" width="40" height="50" as="geometry"/>
                </mxCell>
                <mxCell id="iN6r6kVsFaTpzsSQuCP6-22" value="Отпрален запрос&amp;nbsp;&lt;br style=&quot;font-size: 9px;&quot;&gt;на авторизацию" style="text;html=1;align=left;verticalAlign=middle;resizable=0;points=[];autosize=1;strokeColor=none;fillColor=none;fontSize=9;" parent="iN6r6kVsFaTpzsSQuCP6-2" vertex="1">
                    <mxGeometry x="250" y="70" width="100" height="40" as="geometry"/>
                </mxCell>
                <mxCell id="iN6r6kVsFaTpzsSQuCP6-42" value="" style="points=[[0.145,0.145,0],[0.5,0,0],[0.855,0.145,0],[1,0.5,0],[0.855,0.855,0],[0.5,1,0],[0.145,0.855,0],[0,0.5,0]];shape=mxgraph.bpmn.event;html=1;verticalLabelPosition=bottom;labelBackgroundColor=#ffffff;verticalAlign=top;align=center;perimeter=ellipsePerimeter;outlineConnect=0;aspect=fixed;outline=standard;symbol=message;" parent="iN6r6kVsFaTpzsSQuCP6-2" vertex="1">
                    <mxGeometry x="632.5" y="72.5" width="35" height="35" as="geometry"/>
                </mxCell>
                <mxCell id="iN6r6kVsFaTpzsSQuCP6-47" value="Пользователь получил&lt;br&gt;токены для авторизации" style="text;html=1;align=center;verticalAlign=middle;resizable=0;points=[];autosize=1;strokeColor=none;fillColor=none;fontSize=9;" parent="iN6r6kVsFaTpzsSQuCP6-2" vertex="1">
                    <mxGeometry x="585" y="32.5" width="130" height="40" as="geometry"/>
                </mxCell>
                <mxCell id="iN6r6kVsFaTpzsSQuCP6-49" value="Запросить ресурс" style="points=[[0.25,0,0],[0.5,0,0],[0.75,0,0],[1,0.25,0],[1,0.5,0],[1,0.75,0],[0.75,1,0],[0.5,1,0],[0.25,1,0],[0,0.75,0],[0,0.5,0],[0,0.25,0]];shape=mxgraph.bpmn.task;whiteSpace=wrap;rectStyle=rounded;size=10;html=1;container=1;expand=0;collapsible=0;taskMarker=abstract;fontSize=9;" parent="iN6r6kVsFaTpzsSQuCP6-2" vertex="1">
                    <mxGeometry x="715" y="65" width="110" height="50" as="geometry"/>
                </mxCell>
                <mxCell id="iN6r6kVsFaTpzsSQuCP6-50" style="edgeStyle=orthogonalEdgeStyle;rounded=0;orthogonalLoop=1;jettySize=auto;html=1;exitX=1;exitY=0.5;exitDx=0;exitDy=0;exitPerimeter=0;entryX=0;entryY=0.5;entryDx=0;entryDy=0;entryPerimeter=0;" parent="iN6r6kVsFaTpzsSQuCP6-2" source="iN6r6kVsFaTpzsSQuCP6-42" target="iN6r6kVsFaTpzsSQuCP6-49" edge="1">
                    <mxGeometry relative="1" as="geometry"/>
                </mxCell>
                <mxCell id="iN6r6kVsFaTpzsSQuCP6-51" value="" style="points=[[0.145,0.145,0],[0.5,0,0],[0.855,0.145,0],[1,0.5,0],[0.855,0.855,0],[0.5,1,0],[0.145,0.855,0],[0,0.5,0]];shape=mxgraph.bpmn.event;html=1;verticalLabelPosition=bottom;labelBackgroundColor=#ffffff;verticalAlign=top;align=center;perimeter=ellipsePerimeter;outlineConnect=0;aspect=fixed;outline=end;symbol=terminate2;" parent="iN6r6kVsFaTpzsSQuCP6-2" vertex="1">
                    <mxGeometry x="852.5" y="72.5" width="35" height="35" as="geometry"/>
                </mxCell>
                <mxCell id="iN6r6kVsFaTpzsSQuCP6-52" style="edgeStyle=orthogonalEdgeStyle;rounded=0;orthogonalLoop=1;jettySize=auto;html=1;exitX=1;exitY=0.5;exitDx=0;exitDy=0;exitPerimeter=0;entryX=0;entryY=0.5;entryDx=0;entryDy=0;entryPerimeter=0;" parent="iN6r6kVsFaTpzsSQuCP6-2" source="iN6r6kVsFaTpzsSQuCP6-49" target="iN6r6kVsFaTpzsSQuCP6-51" edge="1">
                    <mxGeometry relative="1" as="geometry"/>
                </mxCell>
                <mxCell id="iN6r6kVsFaTpzsSQuCP6-54" value="" style="points=[[0.145,0.145,0],[0.5,0,0],[0.855,0.145,0],[1,0.5,0],[0.855,0.855,0],[0.5,1,0],[0.145,0.855,0],[0,0.5,0]];shape=mxgraph.bpmn.event;html=1;verticalLabelPosition=bottom;labelBackgroundColor=#ffffff;verticalAlign=top;align=center;perimeter=ellipsePerimeter;outlineConnect=0;aspect=fixed;outline=standard;symbol=message;" parent="iN6r6kVsFaTpzsSQuCP6-2" vertex="1">
                    <mxGeometry x="368" y="106.25" width="37.5" height="37.5" as="geometry"/>
                </mxCell>
                <mxCell id="iN6r6kVsFaTpzsSQuCP6-57" value="Пользователь получил&lt;br&gt;уведомление об отказе" style="text;html=1;align=center;verticalAlign=middle;resizable=0;points=[];autosize=1;strokeColor=none;fillColor=none;fontSize=9;" parent="iN6r6kVsFaTpzsSQuCP6-2" vertex="1">
                    <mxGeometry x="326.75" y="70" width="120" height="40" as="geometry"/>
                </mxCell>
                <mxCell id="iN6r6kVsFaTpzsSQuCP6-58" value="Повторить попытку авторизации" style="points=[[0.25,0,0],[0.5,0,0],[0.75,0,0],[1,0.25,0],[1,0.5,0],[1,0.75,0],[0.75,1,0],[0.5,1,0],[0.25,1,0],[0,0.75,0],[0,0.5,0],[0,0.25,0]];shape=mxgraph.bpmn.task;whiteSpace=wrap;rectStyle=rounded;size=10;html=1;container=1;expand=0;collapsible=0;taskMarker=abstract;fontSize=9;" parent="iN6r6kVsFaTpzsSQuCP6-2" vertex="1">
                    <mxGeometry x="440" y="100" width="110" height="50" as="geometry"/>
                </mxCell>
                <mxCell id="iN6r6kVsFaTpzsSQuCP6-59" style="edgeStyle=orthogonalEdgeStyle;rounded=0;orthogonalLoop=1;jettySize=auto;html=1;exitX=0.5;exitY=0;exitDx=0;exitDy=0;exitPerimeter=0;entryX=0.5;entryY=0;entryDx=0;entryDy=0;entryPerimeter=0;" parent="iN6r6kVsFaTpzsSQuCP6-2" source="iN6r6kVsFaTpzsSQuCP6-58" target="iN6r6kVsFaTpzsSQuCP6-7" edge="1">
                    <mxGeometry relative="1" as="geometry">
                        <Array as="points">
                            <mxPoint x="495" y="30"/>
                            <mxPoint x="135" y="30"/>
                        </Array>
                    </mxGeometry>
                </mxCell>
                <mxCell id="iN6r6kVsFaTpzsSQuCP6-60" style="edgeStyle=orthogonalEdgeStyle;rounded=0;orthogonalLoop=1;jettySize=auto;html=1;exitX=1;exitY=0.5;exitDx=0;exitDy=0;exitPerimeter=0;entryX=0;entryY=0.5;entryDx=0;entryDy=0;entryPerimeter=0;" parent="iN6r6kVsFaTpzsSQuCP6-2" source="iN6r6kVsFaTpzsSQuCP6-54" target="iN6r6kVsFaTpzsSQuCP6-58" edge="1">
                    <mxGeometry relative="1" as="geometry"/>
                </mxCell>
                <mxCell id="iN6r6kVsFaTpzsSQuCP6-3" value="Система авторизации" style="swimlane;html=1;startSize=20;horizontal=0;" parent="iN6r6kVsFaTpzsSQuCP6-1" vertex="1">
                    <mxGeometry y="270" width="910" height="250" as="geometry"/>
                </mxCell>
                <mxCell id="iN6r6kVsFaTpzsSQuCP6-19" value="" style="points=[[0.145,0.145,0],[0.5,0,0],[0.855,0.145,0],[1,0.5,0],[0.855,0.855,0],[0.5,1,0],[0.145,0.855,0],[0,0.5,0]];shape=mxgraph.bpmn.event;html=1;verticalLabelPosition=bottom;labelBackgroundColor=#ffffff;verticalAlign=top;align=center;perimeter=ellipsePerimeter;outlineConnect=0;aspect=fixed;outline=catching;symbol=message;" parent="iN6r6kVsFaTpzsSQuCP6-3" vertex="1">
                    <mxGeometry x="52.5" y="87.5" width="35" height="35" as="geometry"/>
                </mxCell>
                <mxCell id="iN6r6kVsFaTpzsSQuCP6-21" value="Проверить данные авторизации" style="points=[[0.25,0,0],[0.5,0,0],[0.75,0,0],[1,0.25,0],[1,0.5,0],[1,0.75,0],[0.75,1,0],[0.5,1,0],[0.25,1,0],[0,0.75,0],[0,0.5,0],[0,0.25,0]];shape=mxgraph.bpmn.task;whiteSpace=wrap;rectStyle=rounded;size=10;html=1;container=1;expand=0;collapsible=0;taskMarker=abstract;fontSize=9;" parent="iN6r6kVsFaTpzsSQuCP6-3" vertex="1">
                    <mxGeometry x="110" y="80" width="110" height="50" as="geometry"/>
                </mxCell>
                <mxCell id="iN6r6kVsFaTpzsSQuCP6-24" value="" style="points=[[0.145,0.145,0],[0.5,0,0],[0.855,0.145,0],[1,0.5,0],[0.855,0.855,0],[0.5,1,0],[0.145,0.855,0],[0,0.5,0]];shape=mxgraph.bpmn.event;html=1;verticalLabelPosition=bottom;labelBackgroundColor=#ffffff;verticalAlign=top;align=center;perimeter=ellipsePerimeter;outlineConnect=0;aspect=fixed;outline=eventInt;symbol=error;" parent="iN6r6kVsFaTpzsSQuCP6-21" vertex="1">
                    <mxGeometry x="75" y="40" width="25" height="25" as="geometry"/>
                </mxCell>
                <mxCell id="iN6r6kVsFaTpzsSQuCP6-23" style="edgeStyle=orthogonalEdgeStyle;rounded=0;orthogonalLoop=1;jettySize=auto;html=1;exitX=1;exitY=0.5;exitDx=0;exitDy=0;exitPerimeter=0;entryX=0;entryY=0.5;entryDx=0;entryDy=0;entryPerimeter=0;" parent="iN6r6kVsFaTpzsSQuCP6-3" source="iN6r6kVsFaTpzsSQuCP6-19" target="iN6r6kVsFaTpzsSQuCP6-21" edge="1">
                    <mxGeometry relative="1" as="geometry"/>
                </mxCell>
                <mxCell id="iN6r6kVsFaTpzsSQuCP6-25" value="Отказать в авторизации" style="points=[[0.25,0,0],[0.5,0,0],[0.75,0,0],[1,0.25,0],[1,0.5,0],[1,0.75,0],[0.75,1,0],[0.5,1,0],[0.25,1,0],[0,0.75,0],[0,0.5,0],[0,0.25,0]];shape=mxgraph.bpmn.task;whiteSpace=wrap;rectStyle=rounded;size=10;html=1;container=1;expand=0;collapsible=0;taskMarker=abstract;fontSize=9;" parent="iN6r6kVsFaTpzsSQuCP6-3" vertex="1">
                    <mxGeometry x="225" y="140" width="110" height="50" as="geometry"/>
                </mxCell>
                <mxCell id="iN6r6kVsFaTpzsSQuCP6-27" style="edgeStyle=orthogonalEdgeStyle;rounded=0;orthogonalLoop=1;jettySize=auto;html=1;exitX=0.5;exitY=1;exitDx=0;exitDy=0;exitPerimeter=0;entryX=0;entryY=0.5;entryDx=0;entryDy=0;entryPerimeter=0;endArrow=classic;endFill=1;" parent="iN6r6kVsFaTpzsSQuCP6-3" source="iN6r6kVsFaTpzsSQuCP6-24" target="iN6r6kVsFaTpzsSQuCP6-25" edge="1">
                    <mxGeometry relative="1" as="geometry">
                        <Array as="points">
                            <mxPoint x="203" y="165"/>
                        </Array>
                    </mxGeometry>
                </mxCell>
                <mxCell id="iN6r6kVsFaTpzsSQuCP6-28" value="Получен запрос&amp;nbsp;&lt;br style=&quot;font-size: 9px;&quot;&gt;на авторизацию" style="text;html=1;align=center;verticalAlign=middle;resizable=0;points=[];autosize=1;strokeColor=none;fillColor=none;fontSize=9;" parent="iN6r6kVsFaTpzsSQuCP6-3" vertex="1">
                    <mxGeometry x="25" y="47.5" width="90" height="40" as="geometry"/>
                </mxCell>
                <mxCell id="iN6r6kVsFaTpzsSQuCP6-29" value="Создать пару JWT токенов" style="points=[[0.25,0,0],[0.5,0,0],[0.75,0,0],[1,0.25,0],[1,0.5,0],[1,0.75,0],[0.75,1,0],[0.5,1,0],[0.25,1,0],[0,0.75,0],[0,0.5,0],[0,0.25,0]];shape=mxgraph.bpmn.task;whiteSpace=wrap;rectStyle=rounded;size=10;html=1;container=1;expand=0;collapsible=0;taskMarker=abstract;fontSize=9;" parent="iN6r6kVsFaTpzsSQuCP6-3" vertex="1">
                    <mxGeometry x="250" y="80" width="110" height="50" as="geometry"/>
                </mxCell>
                <mxCell id="iN6r6kVsFaTpzsSQuCP6-39" style="edgeStyle=orthogonalEdgeStyle;rounded=0;orthogonalLoop=1;jettySize=auto;html=1;exitX=1;exitY=0.5;exitDx=0;exitDy=0;exitPerimeter=0;" parent="iN6r6kVsFaTpzsSQuCP6-3" source="iN6r6kVsFaTpzsSQuCP6-31" target="iN6r6kVsFaTpzsSQuCP6-32" edge="1">
                    <mxGeometry relative="1" as="geometry"/>
                </mxCell>
                <mxCell id="iN6r6kVsFaTpzsSQuCP6-31" value="Создать сессию для пользователя" style="points=[[0.25,0,0],[0.5,0,0],[0.75,0,0],[1,0.25,0],[1,0.5,0],[1,0.75,0],[0.75,1,0],[0.5,1,0],[0.25,1,0],[0,0.75,0],[0,0.5,0],[0,0.25,0]];shape=mxgraph.bpmn.task;whiteSpace=wrap;rectStyle=rounded;size=10;html=1;container=1;expand=0;collapsible=0;taskMarker=abstract;fontSize=9;" parent="iN6r6kVsFaTpzsSQuCP6-3" vertex="1">
                    <mxGeometry x="415" y="80" width="110" height="50" as="geometry"/>
                </mxCell>
                <mxCell id="iN6r6kVsFaTpzsSQuCP6-40" style="edgeStyle=orthogonalEdgeStyle;rounded=0;orthogonalLoop=1;jettySize=auto;html=1;exitX=0.5;exitY=1;exitDx=0;exitDy=0;exitPerimeter=0;entryX=0.5;entryY=0;entryDx=0;entryDy=0;dashed=1;dashPattern=1 4;" parent="iN6r6kVsFaTpzsSQuCP6-3" source="iN6r6kVsFaTpzsSQuCP6-32" target="iN6r6kVsFaTpzsSQuCP6-33" edge="1">
                    <mxGeometry relative="1" as="geometry"/>
                </mxCell>
                <mxCell id="iN6r6kVsFaTpzsSQuCP6-32" value="Записать данные сессии в хранилище" style="points=[[0.25,0,0],[0.5,0,0],[0.75,0,0],[1,0.25,0],[1,0.5,0],[1,0.75,0],[0.75,1,0],[0.5,1,0],[0.25,1,0],[0,0.75,0],[0,0.5,0],[0,0.25,0]];shape=mxgraph.bpmn.task;whiteSpace=wrap;rectStyle=rounded;size=10;html=1;container=1;expand=0;collapsible=0;taskMarker=abstract;fontSize=9;" parent="iN6r6kVsFaTpzsSQuCP6-3" vertex="1">
                    <mxGeometry x="560" y="80" width="110" height="50" as="geometry"/>
                </mxCell>
                <mxCell id="iN6r6kVsFaTpzsSQuCP6-33" value="Хранилище" style="shape=datastore;html=1;labelPosition=center;verticalLabelPosition=middle;align=center;verticalAlign=middle;" parent="iN6r6kVsFaTpzsSQuCP6-3" vertex="1">
                    <mxGeometry x="580" y="170" width="70" height="70" as="geometry"/>
                </mxCell>
                <mxCell id="iN6r6kVsFaTpzsSQuCP6-35" value="" style="points=[[0.145,0.145,0],[0.5,0,0],[0.855,0.145,0],[1,0.5,0],[0.855,0.855,0],[0.5,1,0],[0.145,0.855,0],[0,0.5,0]];shape=mxgraph.bpmn.event;html=1;verticalLabelPosition=bottom;labelBackgroundColor=#ffffff;verticalAlign=top;align=center;perimeter=ellipsePerimeter;outlineConnect=0;aspect=fixed;outline=end;symbol=terminate2;" parent="iN6r6kVsFaTpzsSQuCP6-3" vertex="1">
                    <mxGeometry x="490" y="147.5" width="35" height="35" as="geometry"/>
                </mxCell>
                <mxCell id="iN6r6kVsFaTpzsSQuCP6-37" style="edgeStyle=orthogonalEdgeStyle;rounded=0;orthogonalLoop=1;jettySize=auto;html=1;exitX=1;exitY=0.5;exitDx=0;exitDy=0;exitPerimeter=0;entryX=0;entryY=0.5;entryDx=0;entryDy=0;entryPerimeter=0;" parent="iN6r6kVsFaTpzsSQuCP6-3" source="iN6r6kVsFaTpzsSQuCP6-21" target="iN6r6kVsFaTpzsSQuCP6-29" edge="1">
                    <mxGeometry relative="1" as="geometry"/>
                </mxCell>
                <mxCell id="iN6r6kVsFaTpzsSQuCP6-38" style="edgeStyle=orthogonalEdgeStyle;rounded=0;orthogonalLoop=1;jettySize=auto;html=1;exitX=1;exitY=0.5;exitDx=0;exitDy=0;exitPerimeter=0;entryX=0;entryY=0.5;entryDx=0;entryDy=0;entryPerimeter=0;" parent="iN6r6kVsFaTpzsSQuCP6-3" source="iN6r6kVsFaTpzsSQuCP6-29" target="iN6r6kVsFaTpzsSQuCP6-31" edge="1">
                    <mxGeometry relative="1" as="geometry"/>
                </mxCell>
                <mxCell id="iN6r6kVsFaTpzsSQuCP6-41" value="Передать токены пользователю" style="points=[[0.25,0,0],[0.5,0,0],[0.75,0,0],[1,0.25,0],[1,0.5,0],[1,0.75,0],[0.75,1,0],[0.5,1,0],[0.25,1,0],[0,0.75,0],[0,0.5,0],[0,0.25,0]];shape=mxgraph.bpmn.task;whiteSpace=wrap;rectStyle=rounded;size=10;html=1;container=1;expand=0;collapsible=0;taskMarker=abstract;fontSize=9;" parent="iN6r6kVsFaTpzsSQuCP6-3" vertex="1">
                    <mxGeometry x="700" y="80" width="110" height="50" as="geometry"/>
                </mxCell>
                <mxCell id="iN6r6kVsFaTpzsSQuCP6-43" style="edgeStyle=orthogonalEdgeStyle;rounded=0;orthogonalLoop=1;jettySize=auto;html=1;exitX=1;exitY=0.5;exitDx=0;exitDy=0;exitPerimeter=0;entryX=0;entryY=0.5;entryDx=0;entryDy=0;entryPerimeter=0;" parent="iN6r6kVsFaTpzsSQuCP6-3" source="iN6r6kVsFaTpzsSQuCP6-32" target="iN6r6kVsFaTpzsSQuCP6-41" edge="1">
                    <mxGeometry relative="1" as="geometry"/>
                </mxCell>
                <mxCell id="iN6r6kVsFaTpzsSQuCP6-53" value="Уведомить пользователя об отказе" style="points=[[0.25,0,0],[0.5,0,0],[0.75,0,0],[1,0.25,0],[1,0.5,0],[1,0.75,0],[0.75,1,0],[0.5,1,0],[0.25,1,0],[0,0.75,0],[0,0.5,0],[0,0.25,0]];shape=mxgraph.bpmn.task;whiteSpace=wrap;rectStyle=rounded;size=10;html=1;container=1;expand=0;collapsible=0;taskMarker=abstract;fontSize=9;" parent="iN6r6kVsFaTpzsSQuCP6-3" vertex="1">
                    <mxGeometry x="360" y="140" width="110" height="50" as="geometry"/>
                </mxCell>
                <mxCell id="iN6r6kVsFaTpzsSQuCP6-61" style="edgeStyle=orthogonalEdgeStyle;rounded=0;orthogonalLoop=1;jettySize=auto;html=1;exitX=1;exitY=0.5;exitDx=0;exitDy=0;exitPerimeter=0;entryX=0;entryY=0.5;entryDx=0;entryDy=0;entryPerimeter=0;" parent="iN6r6kVsFaTpzsSQuCP6-3" source="iN6r6kVsFaTpzsSQuCP6-25" target="iN6r6kVsFaTpzsSQuCP6-53" edge="1">
                    <mxGeometry relative="1" as="geometry"/>
                </mxCell>
                <mxCell id="iN6r6kVsFaTpzsSQuCP6-62" style="edgeStyle=orthogonalEdgeStyle;rounded=0;orthogonalLoop=1;jettySize=auto;html=1;exitX=1;exitY=0.5;exitDx=0;exitDy=0;exitPerimeter=0;entryX=0;entryY=0.5;entryDx=0;entryDy=0;entryPerimeter=0;" parent="iN6r6kVsFaTpzsSQuCP6-3" source="iN6r6kVsFaTpzsSQuCP6-53" target="iN6r6kVsFaTpzsSQuCP6-35" edge="1">
                    <mxGeometry relative="1" as="geometry"/>
                </mxCell>
                <mxCell id="iN6r6kVsFaTpzsSQuCP6-20" style="edgeStyle=orthogonalEdgeStyle;rounded=0;orthogonalLoop=1;jettySize=auto;html=1;exitX=1;exitY=0.5;exitDx=0;exitDy=0;exitPerimeter=0;entryX=0;entryY=0.5;entryDx=0;entryDy=0;entryPerimeter=0;dashed=1;dashPattern=12 12;" parent="iN6r6kVsFaTpzsSQuCP6-1" source="iN6r6kVsFaTpzsSQuCP6-8" target="iN6r6kVsFaTpzsSQuCP6-19" edge="1">
                    <mxGeometry relative="1" as="geometry">
                        <Array as="points">
                            <mxPoint x="295" y="150"/>
                            <mxPoint x="295" y="240"/>
                            <mxPoint x="30" y="240"/>
                            <mxPoint x="30" y="375"/>
                        </Array>
                    </mxGeometry>
                </mxCell>
                <mxCell id="iN6r6kVsFaTpzsSQuCP6-44" value="" style="endArrow=blockThin;html=1;labelPosition=left;verticalLabelPosition=middle;align=right;verticalAlign=middle;dashed=1;dashPattern=8 4;endFill=0;startArrow=oval;startFill=0;endSize=6;startSize=4;rounded=0;exitX=0.5;exitY=0;exitDx=0;exitDy=0;exitPerimeter=0;entryX=0;entryY=0.5;entryDx=0;entryDy=0;entryPerimeter=0;" parent="iN6r6kVsFaTpzsSQuCP6-1" source="iN6r6kVsFaTpzsSQuCP6-41" target="iN6r6kVsFaTpzsSQuCP6-42" edge="1">
                    <mxGeometry relative="1" as="geometry">
                        <mxPoint x="370" y="270" as="sourcePoint"/>
                        <mxPoint x="530" y="270" as="targetPoint"/>
                        <Array as="points">
                            <mxPoint x="755" y="300"/>
                            <mxPoint x="590" y="300"/>
                            <mxPoint x="590" y="110"/>
                        </Array>
                    </mxGeometry>
                </mxCell>
                <mxCell id="iN6r6kVsFaTpzsSQuCP6-45" value="" style="shape=message;html=1;outlineConnect=0;labelPosition=left;verticalLabelPosition=middle;align=right;verticalAlign=middle;spacingRight=5;labelBackgroundColor=#ffffff;" parent="iN6r6kVsFaTpzsSQuCP6-44" vertex="1">
                    <mxGeometry width="24" height="16" relative="1" as="geometry">
                        <mxPoint x="36" y="1" as="offset"/>
                    </mxGeometry>
                </mxCell>
                <mxCell id="iN6r6kVsFaTpzsSQuCP6-55" value="" style="endArrow=blockThin;html=1;labelPosition=left;verticalLabelPosition=middle;align=right;verticalAlign=middle;dashed=1;dashPattern=8 4;endFill=0;startArrow=oval;startFill=0;endSize=6;startSize=4;rounded=0;exitX=0.25;exitY=0;exitDx=0;exitDy=0;exitPerimeter=0;entryX=0.5;entryY=1;entryDx=0;entryDy=0;entryPerimeter=0;" parent="iN6r6kVsFaTpzsSQuCP6-1" source="iN6r6kVsFaTpzsSQuCP6-53" target="iN6r6kVsFaTpzsSQuCP6-54" edge="1">
                    <mxGeometry relative="1" as="geometry">
                        <mxPoint x="330" y="270" as="sourcePoint"/>
                        <mxPoint x="490" y="270" as="targetPoint"/>
                    </mxGeometry>
                </mxCell>
                <mxCell id="iN6r6kVsFaTpzsSQuCP6-56" value="" style="shape=message;html=1;outlineConnect=0;labelPosition=left;verticalLabelPosition=middle;align=right;verticalAlign=middle;spacingRight=5;labelBackgroundColor=#ffffff;" parent="iN6r6kVsFaTpzsSQuCP6-55" vertex="1">
                    <mxGeometry width="24" height="16" relative="1" as="geometry">
                        <mxPoint x="-12" y="15" as="offset"/>
                    </mxGeometry>
                </mxCell>
                <mxCell id="iN6r6kVsFaTpzsSQuCP6-15" value="" style="edgeStyle=elbowEdgeStyle;fontSize=12;html=1;endFill=0;startFill=0;endSize=6;startSize=6;dashed=1;dashPattern=1 4;endArrow=none;startArrow=none;rounded=0;exitX=0.5;exitY=1;exitDx=0;exitDy=0;exitPerimeter=0;" parent="1" source="iN6r6kVsFaTpzsSQuCP6-12" edge="1">
                    <mxGeometry width="160" relative="1" as="geometry">
                        <mxPoint x="130" y="570" as="sourcePoint"/>
                        <mxPoint x="220" y="530" as="targetPoint"/>
                    </mxGeometry>
                </mxCell>
                <mxCell id="iN6r6kVsFaTpzsSQuCP6-17" value="" style="edgeStyle=elbowEdgeStyle;fontSize=12;html=1;endFill=0;startFill=0;endSize=6;startSize=6;dashed=1;dashPattern=1 4;endArrow=none;startArrow=none;rounded=0;exitX=0;exitY=0;exitDx=12.5;exitDy=0;exitPerimeter=0;" parent="1" source="iN6r6kVsFaTpzsSQuCP6-11" edge="1">
                    <mxGeometry width="160" relative="1" as="geometry">
                        <mxPoint x="130" y="570" as="sourcePoint"/>
                        <mxPoint x="200" y="530" as="targetPoint"/>
                    </mxGeometry>
                </mxCell>
                <mxCell id="_9f16rYwKMdvAfNsZ8wO-1" value="Процесс выполнения объявления" style="swimlane;html=1;childLayout=stackLayout;resizeParent=1;resizeParentMax=0;horizontal=1;startSize=20;horizontalStack=0;whiteSpace=wrap;" parent="1" vertex="1">
                    <mxGeometry y="970" width="910" height="520" as="geometry"/>
                </mxCell>
                <mxCell id="_9f16rYwKMdvAfNsZ8wO-2" value="Автор объявления" style="swimlane;html=1;startSize=20;horizontal=0;" parent="_9f16rYwKMdvAfNsZ8wO-1" vertex="1">
                    <mxGeometry y="20" width="910" height="250" as="geometry"/>
                </mxCell>
                <mxCell id="5" style="edgeStyle=none;html=1;exitX=1;exitY=0.5;exitDx=0;exitDy=0;exitPerimeter=0;entryX=0;entryY=0.5;entryDx=0;entryDy=0;entryPerimeter=0;" edge="1" parent="_9f16rYwKMdvAfNsZ8wO-2" source="2" target="3">
                    <mxGeometry relative="1" as="geometry"/>
                </mxCell>
                <mxCell id="2" value="" style="points=[[0.145,0.145,0],[0.5,0,0],[0.855,0.145,0],[1,0.5,0],[0.855,0.855,0],[0.5,1,0],[0.145,0.855,0],[0,0.5,0]];shape=mxgraph.bpmn.event;html=1;verticalLabelPosition=bottom;labelBackgroundColor=#ffffff;verticalAlign=top;align=center;perimeter=ellipsePerimeter;outlineConnect=0;aspect=fixed;outline=standard;symbol=general;" vertex="1" parent="_9f16rYwKMdvAfNsZ8wO-2">
                    <mxGeometry x="45" y="107.5" width="35" height="35" as="geometry"/>
                </mxCell>
                <mxCell id="12" style="edgeStyle=none;html=1;exitX=1;exitY=0.5;exitDx=0;exitDy=0;exitPerimeter=0;entryX=0;entryY=0.5;entryDx=0;entryDy=0;entryPerimeter=0;" edge="1" parent="_9f16rYwKMdvAfNsZ8wO-2" source="3" target="9">
                    <mxGeometry relative="1" as="geometry"/>
                </mxCell>
                <mxCell id="3" value="Сформировать объявление" style="points=[[0.25,0,0],[0.5,0,0],[0.75,0,0],[1,0.25,0],[1,0.5,0],[1,0.75,0],[0.75,1,0],[0.5,1,0],[0.25,1,0],[0,0.75,0],[0,0.5,0],[0,0.25,0]];shape=mxgraph.bpmn.task;whiteSpace=wrap;rectStyle=rounded;size=10;html=1;container=1;expand=0;collapsible=0;taskMarker=abstract;fontSize=9;" vertex="1" parent="_9f16rYwKMdvAfNsZ8wO-2">
                    <mxGeometry x="100" y="100" width="110" height="50" as="geometry"/>
                </mxCell>
                <mxCell id="9" value="" style="points=[[0.145,0.145,0],[0.5,0,0],[0.855,0.145,0],[1,0.5,0],[0.855,0.855,0],[0.5,1,0],[0.145,0.855,0],[0,0.5,0]];shape=mxgraph.bpmn.event;html=1;verticalLabelPosition=bottom;labelBackgroundColor=#ffffff;verticalAlign=top;align=center;perimeter=ellipsePerimeter;outlineConnect=0;aspect=fixed;outline=standard;symbol=message;" vertex="1" parent="_9f16rYwKMdvAfNsZ8wO-2">
                    <mxGeometry x="240" y="107.5" width="35" height="35" as="geometry"/>
                </mxCell>
                <mxCell id="14" value="&lt;font style=&quot;font-size: 7px;&quot;&gt;Содержание&lt;br&gt;объявления&lt;/font&gt;" style="shape=mxgraph.bpmn.data;labelPosition=center;verticalLabelPosition=middle;align=center;verticalAlign=middle;size=15;html=1;fontSize=9;" vertex="1" parent="_9f16rYwKMdvAfNsZ8wO-2">
                    <mxGeometry x="200" y="40" width="40" height="50" as="geometry"/>
                </mxCell>
                <mxCell id="21" value="Создать объявление" style="text;html=1;align=left;verticalAlign=middle;resizable=0;points=[];autosize=1;strokeColor=none;fillColor=none;fontSize=9;" vertex="1" parent="_9f16rYwKMdvAfNsZ8wO-2">
                    <mxGeometry x="220" y="90" width="110" height="20" as="geometry"/>
                </mxCell>
                <mxCell id="42" style="edgeStyle=orthogonalEdgeStyle;html=1;exitX=1;exitY=0.5;exitDx=0;exitDy=0;exitPerimeter=0;entryX=0;entryY=0.5;entryDx=0;entryDy=0;entryPerimeter=0;fontSize=7;startArrow=none;startFill=0;endArrow=classic;endFill=1;" edge="1" parent="_9f16rYwKMdvAfNsZ8wO-2" source="26" target="38">
                    <mxGeometry relative="1" as="geometry"/>
                </mxCell>
                <mxCell id="26" value="Обсуждение объявления" style="points=[[0.25,0,0],[0.5,0,0],[0.75,0,0],[1,0.25,0],[1,0.5,0],[1,0.75,0],[0.75,1,0],[0.5,1,0],[0.25,1,0],[0,0.75,0],[0,0.5,0],[0,0.25,0]];shape=mxgraph.bpmn.task;whiteSpace=wrap;rectStyle=rounded;size=10;html=1;container=1;expand=0;collapsible=0;taskMarker=abstract;fontSize=9;" vertex="1" parent="_9f16rYwKMdvAfNsZ8wO-2">
                    <mxGeometry x="359" y="100" width="110" height="50" as="geometry"/>
                </mxCell>
                <mxCell id="30" style="edgeStyle=orthogonalEdgeStyle;html=1;exitX=1;exitY=0.5;exitDx=0;exitDy=0;exitPerimeter=0;entryX=0;entryY=0.5;entryDx=0;entryDy=0;entryPerimeter=0;dashed=1;fontSize=7;startArrow=none;startFill=0;endArrow=classic;endFill=1;" edge="1" parent="_9f16rYwKMdvAfNsZ8wO-2" source="27" target="26">
                    <mxGeometry relative="1" as="geometry"/>
                </mxCell>
                <mxCell id="27" value="" style="points=[[0.145,0.145,0],[0.5,0,0],[0.855,0.145,0],[1,0.5,0],[0.855,0.855,0],[0.5,1,0],[0.145,0.855,0],[0,0.5,0]];shape=mxgraph.bpmn.event;html=1;verticalLabelPosition=bottom;labelBackgroundColor=#ffffff;verticalAlign=top;align=center;perimeter=ellipsePerimeter;outlineConnect=0;aspect=fixed;outline=catching;symbol=message;" vertex="1" parent="_9f16rYwKMdvAfNsZ8wO-2">
                    <mxGeometry x="300" y="107.5" width="35" height="35" as="geometry"/>
                </mxCell>
                <mxCell id="31" value="Получить сообщение&lt;br&gt;от потенциального покупателя" style="text;html=1;align=left;verticalAlign=middle;resizable=0;points=[];autosize=1;strokeColor=none;fillColor=none;fontSize=9;" vertex="1" parent="_9f16rYwKMdvAfNsZ8wO-2">
                    <mxGeometry x="290" y="149" width="160" height="40" as="geometry"/>
                </mxCell>
                <mxCell id="41" style="edgeStyle=orthogonalEdgeStyle;html=1;exitX=1;exitY=0.5;exitDx=0;exitDy=0;exitPerimeter=0;entryX=0;entryY=0.5;entryDx=0;entryDy=0;entryPerimeter=0;dashed=1;fontSize=7;startArrow=none;startFill=0;endArrow=classic;endFill=1;" edge="1" parent="_9f16rYwKMdvAfNsZ8wO-2" source="38" target="39">
                    <mxGeometry relative="1" as="geometry"/>
                </mxCell>
                <mxCell id="38" value="" style="points=[[0.145,0.145,0],[0.5,0,0],[0.855,0.145,0],[1,0.5,0],[0.855,0.855,0],[0.5,1,0],[0.145,0.855,0],[0,0.5,0]];shape=mxgraph.bpmn.event;html=1;verticalLabelPosition=bottom;labelBackgroundColor=#ffffff;verticalAlign=top;align=center;perimeter=ellipsePerimeter;outlineConnect=0;aspect=fixed;outline=catching;symbol=message;" vertex="1" parent="_9f16rYwKMdvAfNsZ8wO-2">
                    <mxGeometry x="490" y="107.5" width="35" height="35" as="geometry"/>
                </mxCell>
                <mxCell id="44" style="edgeStyle=orthogonalEdgeStyle;html=1;exitX=1;exitY=0.5;exitDx=0;exitDy=0;exitPerimeter=0;fontSize=7;startArrow=none;startFill=0;endArrow=classic;endFill=1;" edge="1" parent="_9f16rYwKMdvAfNsZ8wO-2" source="39" target="43">
                    <mxGeometry relative="1" as="geometry"/>
                </mxCell>
                <mxCell id="39" value="Подтевердить выполнение объявления" style="points=[[0.25,0,0],[0.5,0,0],[0.75,0,0],[1,0.25,0],[1,0.5,0],[1,0.75,0],[0.75,1,0],[0.5,1,0],[0.25,1,0],[0,0.75,0],[0,0.5,0],[0,0.25,0]];shape=mxgraph.bpmn.task;whiteSpace=wrap;rectStyle=rounded;size=10;html=1;container=1;expand=0;collapsible=0;taskMarker=abstract;fontSize=9;" vertex="1" parent="_9f16rYwKMdvAfNsZ8wO-2">
                    <mxGeometry x="540" y="100" width="110" height="50" as="geometry"/>
                </mxCell>
                <mxCell id="51" style="edgeStyle=orthogonalEdgeStyle;html=1;exitX=1;exitY=0.5;exitDx=0;exitDy=0;exitPerimeter=0;entryX=0;entryY=0.5;entryDx=0;entryDy=0;entryPerimeter=0;dashed=1;fontSize=7;startArrow=none;startFill=0;endArrow=classic;endFill=1;" edge="1" parent="_9f16rYwKMdvAfNsZ8wO-2" source="43" target="50">
                    <mxGeometry relative="1" as="geometry"/>
                </mxCell>
                <mxCell id="43" value="" style="points=[[0.145,0.145,0],[0.5,0,0],[0.855,0.145,0],[1,0.5,0],[0.855,0.855,0],[0.5,1,0],[0.145,0.855,0],[0,0.5,0]];shape=mxgraph.bpmn.event;html=1;verticalLabelPosition=bottom;labelBackgroundColor=#ffffff;verticalAlign=top;align=center;perimeter=ellipsePerimeter;outlineConnect=0;aspect=fixed;outline=standard;symbol=message;" vertex="1" parent="_9f16rYwKMdvAfNsZ8wO-2">
                    <mxGeometry x="667.5" y="107.5" width="35" height="35" as="geometry"/>
                </mxCell>
                <mxCell id="46" value="Получение подтверждения&lt;br&gt;покупателя" style="text;html=1;align=left;verticalAlign=middle;resizable=0;points=[];autosize=1;strokeColor=none;fillColor=none;fontSize=9;" vertex="1" parent="_9f16rYwKMdvAfNsZ8wO-2">
                    <mxGeometry x="440" y="50" width="140" height="40" as="geometry"/>
                </mxCell>
                <mxCell id="47" value="Уведомить систему" style="text;html=1;align=left;verticalAlign=middle;resizable=0;points=[];autosize=1;strokeColor=none;fillColor=none;fontSize=9;" vertex="1" parent="_9f16rYwKMdvAfNsZ8wO-2">
                    <mxGeometry x="630" y="70" width="110" height="20" as="geometry"/>
                </mxCell>
                <mxCell id="50" value="" style="points=[[0.145,0.145,0],[0.5,0,0],[0.855,0.145,0],[1,0.5,0],[0.855,0.855,0],[0.5,1,0],[0.145,0.855,0],[0,0.5,0]];shape=mxgraph.bpmn.event;html=1;verticalLabelPosition=bottom;labelBackgroundColor=#ffffff;verticalAlign=top;align=center;perimeter=ellipsePerimeter;outlineConnect=0;aspect=fixed;outline=end;symbol=terminate2;" vertex="1" parent="_9f16rYwKMdvAfNsZ8wO-2">
                    <mxGeometry x="720" y="107.5" width="35" height="35" as="geometry"/>
                </mxCell>
                <mxCell id="_9f16rYwKMdvAfNsZ8wO-22" value="Покупатель" style="swimlane;html=1;startSize=20;horizontal=0;" parent="_9f16rYwKMdvAfNsZ8wO-1" vertex="1">
                    <mxGeometry y="270" width="910" height="250" as="geometry"/>
                </mxCell>
                <mxCell id="24" style="edgeStyle=orthogonalEdgeStyle;html=1;exitX=1;exitY=0.5;exitDx=0;exitDy=0;exitPerimeter=0;entryX=0;entryY=0.5;entryDx=0;entryDy=0;entryPerimeter=0;fontSize=7;startArrow=none;startFill=0;endArrow=classic;endFill=1;" edge="1" parent="_9f16rYwKMdvAfNsZ8wO-22" source="7" target="23">
                    <mxGeometry relative="1" as="geometry"/>
                </mxCell>
                <mxCell id="7" value="Просмотр объявления" style="points=[[0.25,0,0],[0.5,0,0],[0.75,0,0],[1,0.25,0],[1,0.5,0],[1,0.75,0],[0.75,1,0],[0.5,1,0],[0.25,1,0],[0,0.75,0],[0,0.5,0],[0,0.25,0]];shape=mxgraph.bpmn.task;whiteSpace=wrap;rectStyle=rounded;size=10;html=1;container=1;expand=0;collapsible=0;taskMarker=abstract;fontSize=9;" vertex="1" parent="_9f16rYwKMdvAfNsZ8wO-22">
                    <mxGeometry x="100" y="100" width="110" height="50" as="geometry"/>
                </mxCell>
                <mxCell id="19" style="edgeStyle=orthogonalEdgeStyle;html=1;exitX=1;exitY=0.5;exitDx=0;exitDy=0;exitPerimeter=0;entryX=0;entryY=0.5;entryDx=0;entryDy=0;entryPerimeter=0;fontSize=7;endArrow=classic;endFill=1;" edge="1" parent="_9f16rYwKMdvAfNsZ8wO-22" source="18" target="7">
                    <mxGeometry relative="1" as="geometry"/>
                </mxCell>
                <mxCell id="18" value="" style="points=[[0.145,0.145,0],[0.5,0,0],[0.855,0.145,0],[1,0.5,0],[0.855,0.855,0],[0.5,1,0],[0.145,0.855,0],[0,0.5,0]];shape=mxgraph.bpmn.event;html=1;verticalLabelPosition=bottom;labelBackgroundColor=#ffffff;verticalAlign=top;align=center;perimeter=ellipsePerimeter;outlineConnect=0;aspect=fixed;outline=catching;symbol=message;" vertex="1" parent="_9f16rYwKMdvAfNsZ8wO-22">
                    <mxGeometry x="50" y="107.5" width="35" height="35" as="geometry"/>
                </mxCell>
                <mxCell id="22" value="Объявление создано" style="text;html=1;align=left;verticalAlign=middle;resizable=0;points=[];autosize=1;strokeColor=none;fillColor=none;fontSize=9;" vertex="1" parent="_9f16rYwKMdvAfNsZ8wO-22">
                    <mxGeometry x="50" y="70" width="110" height="20" as="geometry"/>
                </mxCell>
                <mxCell id="33" style="edgeStyle=orthogonalEdgeStyle;html=1;exitX=1;exitY=0.5;exitDx=0;exitDy=0;exitPerimeter=0;entryX=0;entryY=0.5;entryDx=0;entryDy=0;entryPerimeter=0;fontSize=7;startArrow=none;startFill=0;endArrow=classic;endFill=1;" edge="1" parent="_9f16rYwKMdvAfNsZ8wO-22" source="23" target="32">
                    <mxGeometry relative="1" as="geometry"/>
                </mxCell>
                <mxCell id="23" value="" style="points=[[0.145,0.145,0],[0.5,0,0],[0.855,0.145,0],[1,0.5,0],[0.855,0.855,0],[0.5,1,0],[0.145,0.855,0],[0,0.5,0]];shape=mxgraph.bpmn.event;html=1;verticalLabelPosition=bottom;labelBackgroundColor=#ffffff;verticalAlign=top;align=center;perimeter=ellipsePerimeter;outlineConnect=0;aspect=fixed;outline=standard;symbol=message;" vertex="1" parent="_9f16rYwKMdvAfNsZ8wO-22">
                    <mxGeometry x="300" y="107.5" width="35" height="35" as="geometry"/>
                </mxCell>
                <mxCell id="25" value="Начать обсуждение объявления" style="text;html=1;align=left;verticalAlign=middle;resizable=0;points=[];autosize=1;strokeColor=none;fillColor=none;fontSize=9;" vertex="1" parent="_9f16rYwKMdvAfNsZ8wO-22">
                    <mxGeometry x="230" y="150" width="160" height="20" as="geometry"/>
                </mxCell>
                <mxCell id="37" style="edgeStyle=orthogonalEdgeStyle;html=1;exitX=1;exitY=0.5;exitDx=0;exitDy=0;exitPerimeter=0;entryX=0;entryY=0.5;entryDx=0;entryDy=0;entryPerimeter=0;fontSize=7;startArrow=none;startFill=0;endArrow=classic;endFill=1;" edge="1" parent="_9f16rYwKMdvAfNsZ8wO-22" source="32" target="35">
                    <mxGeometry relative="1" as="geometry"/>
                </mxCell>
                <mxCell id="32" value="Обсуждение объявления" style="points=[[0.25,0,0],[0.5,0,0],[0.75,0,0],[1,0.25,0],[1,0.5,0],[1,0.75,0],[0.75,1,0],[0.5,1,0],[0.25,1,0],[0,0.75,0],[0,0.5,0],[0,0.25,0]];shape=mxgraph.bpmn.task;whiteSpace=wrap;rectStyle=rounded;size=10;html=1;container=1;expand=0;collapsible=0;taskMarker=abstract;fontSize=9;" vertex="1" parent="_9f16rYwKMdvAfNsZ8wO-22">
                    <mxGeometry x="359" y="100" width="110" height="50" as="geometry"/>
                </mxCell>
                <mxCell id="35" value="" style="points=[[0.145,0.145,0],[0.5,0,0],[0.855,0.145,0],[1,0.5,0],[0.855,0.855,0],[0.5,1,0],[0.145,0.855,0],[0,0.5,0]];shape=mxgraph.bpmn.event;html=1;verticalLabelPosition=bottom;labelBackgroundColor=#ffffff;verticalAlign=top;align=center;perimeter=ellipsePerimeter;outlineConnect=0;aspect=fixed;outline=standard;symbol=message;" vertex="1" parent="_9f16rYwKMdvAfNsZ8wO-22">
                    <mxGeometry x="490" y="107.5" width="35" height="35" as="geometry"/>
                </mxCell>
                <mxCell id="36" value="Согласие с условиями продавца" style="text;html=1;align=left;verticalAlign=middle;resizable=0;points=[];autosize=1;strokeColor=none;fillColor=none;fontSize=9;" vertex="1" parent="_9f16rYwKMdvAfNsZ8wO-22">
                    <mxGeometry x="450" y="150" width="160" height="20" as="geometry"/>
                </mxCell>
                <mxCell id="29" style="edgeStyle=orthogonalEdgeStyle;html=1;exitX=0.5;exitY=0;exitDx=0;exitDy=0;exitPerimeter=0;entryX=0.5;entryY=1;entryDx=0;entryDy=0;entryPerimeter=0;fontSize=7;startArrow=none;startFill=0;endArrow=classic;endFill=1;dashed=1;" edge="1" parent="_9f16rYwKMdvAfNsZ8wO-1" source="23" target="27">
                    <mxGeometry relative="1" as="geometry"/>
                </mxCell>
                <mxCell id="40" style="edgeStyle=orthogonalEdgeStyle;html=1;exitX=0.5;exitY=0;exitDx=0;exitDy=0;exitPerimeter=0;entryX=0.5;entryY=1;entryDx=0;entryDy=0;entryPerimeter=0;fontSize=7;startArrow=none;startFill=0;endArrow=classic;endFill=1;dashed=1;" edge="1" parent="_9f16rYwKMdvAfNsZ8wO-1" source="35" target="38">
                    <mxGeometry relative="1" as="geometry"/>
                </mxCell>
                <mxCell id="13" value="Система&amp;nbsp;" style="whiteSpace=wrap;html=1;" vertex="1" parent="1">
                    <mxGeometry y="1490" width="910" height="40" as="geometry"/>
                </mxCell>
                <mxCell id="15" style="edgeStyle=none;html=1;exitX=0.5;exitY=1;exitDx=0;exitDy=0;exitPerimeter=0;fontSize=7;endArrow=none;endFill=0;dashed=1;dashPattern=1 4;" edge="1" parent="1" source="14">
                    <mxGeometry relative="1" as="geometry">
                        <mxPoint x="220" y="1114" as="targetPoint"/>
                    </mxGeometry>
                </mxCell>
                <mxCell id="17" style="edgeStyle=orthogonalEdgeStyle;html=1;exitX=0.5;exitY=1;exitDx=0;exitDy=0;exitPerimeter=0;entryX=0.043;entryY=-0.012;entryDx=0;entryDy=0;entryPerimeter=0;dashed=1;fontSize=7;endArrow=classic;endFill=1;" edge="1" parent="1" source="9" target="13">
                    <mxGeometry relative="1" as="geometry">
                        <Array as="points">
                            <mxPoint x="258" y="1180"/>
                            <mxPoint x="39" y="1180"/>
                        </Array>
                    </mxGeometry>
                </mxCell>
                <mxCell id="20" style="edgeStyle=orthogonalEdgeStyle;html=1;exitX=0.5;exitY=1;exitDx=0;exitDy=0;exitPerimeter=0;entryX=0.074;entryY=0.019;entryDx=0;entryDy=0;entryPerimeter=0;fontSize=7;endArrow=none;endFill=0;startArrow=classic;startFill=1;dashed=1;" edge="1" parent="1" source="18" target="13">
                    <mxGeometry relative="1" as="geometry"/>
                </mxCell>
                <mxCell id="49" style="edgeStyle=orthogonalEdgeStyle;html=1;exitX=0.5;exitY=1;exitDx=0;exitDy=0;exitPerimeter=0;dashed=1;fontSize=7;startArrow=none;startFill=0;endArrow=classic;endFill=1;entryX=0.753;entryY=0;entryDx=0;entryDy=0;entryPerimeter=0;" edge="1" parent="1" source="43" target="13">
                    <mxGeometry relative="1" as="geometry">
                        <mxPoint x="685.3684210526317" y="1480" as="targetPoint"/>
                    </mxGeometry>
                </mxCell>
            </root>
        </mxGraphModel>
    </diagram>
</mxfile>